<svg width="51" height="74" viewBox="0 0 51 74" fill="none" xmlns="http://www.w3.org/2000/svg">
<path d="M27.18 40.448C27.54 40.304 27.84 40.232 28.08 40.232C28.464 40.232 28.752 40.376 28.944 40.664C29.136 40.952 29.232 41.324 29.232 41.78C29.232 42.5 29.052 43.112 28.692 43.616C28.356 44.12 27.768 44.576 26.928 44.984C25.512 45.656 23.676 46.196 21.42 46.604C19.164 46.988 16.944 47.18 14.76 47.18C11.736 47.18 9.204 46.844 7.164 46.172C5.124 45.476 3.6 44.528 2.592 43.328C1.608 42.128 1.116 40.772 1.116 39.26C1.116 37.196 1.776 35.444 3.096 34.004C4.44 32.54 6.408 31.484 9 30.836C7.584 30.428 6.492 29.708 5.724 28.676C4.98 27.644 4.608 26.492 4.608 25.22C4.608 23.492 5.148 21.968 6.228 20.648C7.332 19.304 8.808 18.272 10.656 17.552C12.504 16.832 14.532 16.472 16.74 16.472C19.716 16.472 21.948 17.12 23.436 18.416C24.924 19.688 25.668 21.344 25.668 23.384C25.668 24.8 25.404 25.952 24.876 26.84C24.372 27.704 23.64 28.136 22.68 28.136C22.008 28.136 21.48 27.992 21.096 27.704C20.712 27.392 20.52 26.936 20.52 26.336C20.52 25.928 20.58 25.484 20.7 25.004C20.82 24.212 20.88 23.672 20.88 23.384C20.88 22.52 20.556 21.824 19.908 21.296C19.26 20.744 18.18 20.468 16.668 20.468C14.628 20.468 12.996 20.9 11.772 21.764C10.548 22.628 9.936 23.792 9.936 25.256C9.936 26.384 10.392 27.32 11.304 28.064C12.24 28.784 13.752 29.18 15.84 29.252C16.368 29.276 16.74 29.396 16.956 29.612C17.172 29.828 17.28 30.188 17.28 30.692C17.28 32.276 16.56 33.08 15.12 33.104C13.128 33.152 11.472 33.428 10.152 33.932C8.856 34.436 7.908 35.084 7.308 35.876C6.732 36.644 6.444 37.472 6.444 38.36C6.444 39.848 7.14 40.976 8.532 41.744C9.924 42.488 12.132 42.86 15.156 42.86C17.148 42.86 19.248 42.632 21.456 42.176C23.688 41.696 25.596 41.12 27.18 40.448Z" fill="#3E4357"/>
<path d="M48.276 28.12C49.02 28.264 49.572 28.516 49.932 28.876C50.316 29.236 50.508 29.656 50.508 30.136C50.508 30.928 50.28 31.504 49.824 31.864C49.392 32.224 48.696 32.368 47.736 32.296C45.576 32.128 43.884 32.02 42.66 31.972C41.46 31.9 39.876 31.852 37.908 31.828C37.02 36.244 36.204 40.684 35.46 45.148C35.196 46.78 34.92 48.676 34.632 50.836C34.344 52.972 34.152 54.7 34.056 56.02C34.008 56.716 33.72 57.256 33.192 57.64C32.664 58 32.028 58.18 31.284 58.18C30.492 58.18 29.88 57.988 29.448 57.604C29.016 57.22 28.8 56.716 28.8 56.092C28.8 55.516 28.884 54.568 29.052 53.248C29.244 51.904 29.46 50.5 29.7 49.036C29.964 47.572 30.168 46.3 30.312 45.22C30.576 43.396 30.876 41.584 31.212 39.784C31.548 37.984 31.884 36.28 32.22 34.672C32.292 34.312 32.376 33.904 32.472 33.448C32.568 32.968 32.676 32.44 32.796 31.864C30.444 31.936 28.596 32.128 27.252 32.44C25.908 32.752 24.948 33.196 24.372 33.772C23.82 34.324 23.544 35.044 23.544 35.932C23.544 36.748 23.784 37.528 24.264 38.272C24.36 38.44 24.408 38.62 24.408 38.812C24.408 39.268 24.132 39.7 23.58 40.108C23.052 40.492 22.5 40.684 21.924 40.684C21.516 40.684 21.18 40.564 20.916 40.324C20.436 39.916 20.04 39.34 19.728 38.596C19.416 37.828 19.26 36.964 19.26 36.004C19.26 33.964 19.92 32.332 21.24 31.108C22.584 29.86 24.612 28.948 27.324 28.372C30.06 27.796 33.564 27.508 37.836 27.508C40.476 27.508 42.576 27.556 44.136 27.652C45.72 27.748 47.1 27.904 48.276 28.12Z" fill="#3E4357"/>
</svg>
